<svg xmlns="http://www.w3.org/2000/svg" width="2560" height="1440"><path d="M1317,764L1208,840L1287,881Z" fill="#dfdfdf" stroke="#dfdfdf" stroke-width="1.51"/><path d="M1208,840L1213,994L1287,881Z" fill="#cbcbcb" stroke="#cbcbcb" stroke-width="1.51"/><path d="M1317,764L1220,530L1208,840Z" fill="#f1f1f1" stroke="#f1f1f1" stroke-width="1.51"/><path d="M1220,530L967,753L1208,840Z" fill="#e1e1e1" stroke="#e1e1e1" stroke-width="1.51"/><path d="M1208,840L916,932L1213,994Z" fill="#b8b8b8" stroke="#b8b8b8" stroke-width="1.51"/><path d="M967,753L916,932L1208,840Z" fill="#bdbdbd" stroke="#bdbdbd" stroke-width="1.51"/><path d="M1287,881L1644,1055L1317,764Z" fill="#c0c0c0" stroke="#c0c0c0" stroke-width="1.51"/><path d="M1213,994L1374,1199L1287,881Z" fill="#b8b8b8" stroke="#b8b8b8" stroke-width="1.51"/><path d="M1203,1327L1374,1199L1213,994Z" fill="#9a9a9a" stroke="#9a9a9a" stroke-width="1.51"/><path d="M1374,1199L1644,1055L1287,881Z" fill="#a1a1a1" stroke="#a1a1a1" stroke-width="1.51"/><path d="M1317,764L1590,491L1220,530Z" fill="#d1d1d1" stroke="#d1d1d1" stroke-width="1.51"/><path d="M1774,804L1590,491L1317,764Z" fill="#cbcbcb" stroke="#cbcbcb" stroke-width="1.51"/><path d="M1644,1055L1774,804L1317,764Z" fill="#b0b0b0" stroke="#b0b0b0" stroke-width="1.51"/><path d="M1220,530L1011,376L967,753Z" fill="#b9b9b9" stroke="#b9b9b9" stroke-width="1.51"/><path d="M564,985L639,1113L916,932Z" fill="#757575" stroke="#757575" stroke-width="1.51"/><path d="M1158,222L1011,376L1220,530Z" fill="#9e9e9e" stroke="#9e9e9e" stroke-width="1.51"/><path d="M831,1275L1203,1327L1213,994Z" fill="#7f7f7f" stroke="#7f7f7f" stroke-width="1.51"/><path d="M1648,1392L1744,1283L1644,1055Z" fill="#606060" stroke="#606060" stroke-width="1.51"/><path d="M1590,491L1502,352L1220,530Z" fill="#adadad" stroke="#adadad" stroke-width="1.51"/><path d="M1502,352L1421,305L1220,530Z" fill="#a8a8a8" stroke="#a8a8a8" stroke-width="1.51"/><path d="M1421,305L1158,222L1220,530Z" fill="#ababab" stroke="#ababab" stroke-width="1.51"/><path d="M916,932L831,1275L1213,994Z" fill="#8c8c8c" stroke="#8c8c8c" stroke-width="1.51"/><path d="M639,1113L831,1275L916,932Z" fill="#6e6e6e" stroke="#6e6e6e" stroke-width="1.51"/><path d="M1203,1327L1259,1476L1374,1199Z" fill="#858585" stroke="#858585" stroke-width="1.51"/><path d="M955,1508L1259,1476L1203,1327Z" fill="#737373" stroke="#737373" stroke-width="1.51"/><path d="M1644,1055L2036,993L1774,804Z" fill="#858585" stroke="#858585" stroke-width="1.51"/><path d="M1648,1392L1644,1055L1374,1199Z" fill="#737373" stroke="#737373" stroke-width="1.51"/><path d="M1011,376L688,356L967,753Z" fill="#989898" stroke="#989898" stroke-width="1.51"/><path d="M1158,222L871,255L1011,376Z" fill="#7f7f7f" stroke="#7f7f7f" stroke-width="1.51"/><path d="M1259,1476L1648,1392L1374,1199Z" fill="#737373" stroke="#737373" stroke-width="1.51"/><path d="M564,985L916,932L517,770Z" fill="#868686" stroke="#868686" stroke-width="1.51"/><path d="M517,770L916,932L967,753Z" fill="#a5a5a5" stroke="#a5a5a5" stroke-width="1.51"/><path d="M871,255L688,356L1011,376Z" fill="#757575" stroke="#757575" stroke-width="1.51"/><path d="M688,356L517,770L967,753Z" fill="#9c9c9c" stroke="#9c9c9c" stroke-width="1.51"/><path d="M545,1470L955,1508L831,1275Z" fill="#4b4b4b" stroke="#4b4b4b" stroke-width="1.51"/><path d="M831,1275L955,1508L1203,1327Z" fill="#636363" stroke="#636363" stroke-width="1.51"/><path d="M1774,804L1996,439L1590,491Z" fill="#999999" stroke="#999999" stroke-width="1.51"/><path d="M1590,491L1782,212L1502,352Z" fill="#828282" stroke="#828282" stroke-width="1.51"/><path d="M2036,993L2040,712L1774,804Z" fill="#8a8a8a" stroke="#8a8a8a" stroke-width="1.51"/><path d="M1744,1283L1885,1296L1644,1055Z" fill="#5d5d5d" stroke="#5d5d5d" stroke-width="1.51"/><path d="M1805,1413L1885,1296L1744,1283Z" fill="#484848" stroke="#484848" stroke-width="1.51"/><path d="M1885,1296L2036,993L1644,1055Z" fill="#626262" stroke="#626262" stroke-width="1.51"/><path d="M1883,304L1782,212L1590,491Z" fill="#707070" stroke="#707070" stroke-width="1.51"/><path d="M1502,352L1782,212L1421,305Z" fill="#7e7e7e" stroke="#7e7e7e" stroke-width="1.51"/><path d="M1442,-102L1029,-73L1158,222Z" fill="#7b7b7b" stroke="#7b7b7b" stroke-width="1.51"/><path d="M1996,439L1883,304L1590,491Z" fill="#757575" stroke="#757575" stroke-width="1.51"/><path d="M1843,1741L1805,1413L1648,1392Z" fill="#4c4c4c" stroke="#4c4c4c" stroke-width="1.51"/><path d="M1648,1392L1805,1413L1744,1283Z" fill="#505050" stroke="#505050" stroke-width="1.51"/><path d="M2040,712L1996,439L1774,804Z" fill="#959595" stroke="#959595" stroke-width="1.51"/><path d="M1259,1476L1449,1613L1648,1392Z" fill="#6f6f6f" stroke="#6f6f6f" stroke-width="1.51"/><path d="M1345,1660L1449,1613L1259,1476Z" fill="#7a7a7a" stroke="#7a7a7a" stroke-width="1.51"/><path d="M639,1113L545,1470L831,1275Z" fill="#424242" stroke="#424242" stroke-width="1.51"/><path d="M564,985L446,1004L639,1113Z" fill="#5f5f5f" stroke="#5f5f5f" stroke-width="1.51"/><path d="M517,770L446,1004L564,985Z" fill="#6f6f6f" stroke="#6f6f6f" stroke-width="1.51"/><path d="M1163,1719L1345,1660L1259,1476Z" fill="#7f7f7f" stroke="#7f7f7f" stroke-width="1.51"/><path d="M955,1508L1003,1638L1259,1476Z" fill="#6a6a6a" stroke="#6a6a6a" stroke-width="1.51"/><path d="M762,1698L1003,1638L955,1508Z" fill="#575757" stroke="#575757" stroke-width="1.51"/><path d="M2036,993L2166,907L2040,712Z" fill="#757575" stroke="#757575" stroke-width="1.51"/><path d="M2040,712L2116,461L1996,439Z" fill="#727272" stroke="#727272" stroke-width="1.51"/><path d="M2191,1192L2166,907L2036,993Z" fill="#525252" stroke="#525252" stroke-width="1.51"/><path d="M2191,1192L2036,993L1885,1296Z" fill="#464646" stroke="#464646" stroke-width="1.51"/><path d="M1003,1638L1163,1719L1259,1476Z" fill="#727272" stroke="#727272" stroke-width="1.51"/><path d="M2232,647L2116,461L2040,712Z" fill="#767676" stroke="#767676" stroke-width="1.51"/><path d="M1996,439L2078,166L1883,304Z" fill="#505050" stroke="#505050" stroke-width="1.51"/><path d="M1883,304L2078,166L1782,212Z" fill="#4b4b4b" stroke="#4b4b4b" stroke-width="1.51"/><path d="M1158,222L1029,-73L871,255Z" fill="#666666" stroke="#666666" stroke-width="1.51"/><path d="M871,255L588,159L688,356Z" fill="#585858" stroke="#585858" stroke-width="1.51"/><path d="M1442,-102L1158,222L1421,305Z" fill="#7e7e7e" stroke="#7e7e7e" stroke-width="1.51"/><path d="M1782,212L1442,-102L1421,305Z" fill="#656565" stroke="#656565" stroke-width="1.51"/><path d="M1758,-114L1442,-102L1782,212Z" fill="#585858" stroke="#585858" stroke-width="1.51"/><path d="M688,356L324,647L517,770Z" fill="#7c7c7c" stroke="#7c7c7c" stroke-width="1.51"/><path d="M517,770L170,808L446,1004Z" fill="#6b6b6b" stroke="#6b6b6b" stroke-width="1.51"/><path d="M639,10L588,159L871,255Z" fill="#434343" stroke="#434343" stroke-width="1.51"/><path d="M308,317L324,647L688,356Z" fill="#595959" stroke="#595959" stroke-width="1.51"/><path d="M446,1004L442,1317L639,1113Z" fill="#484848" stroke="#484848" stroke-width="1.51"/><path d="M393,1396L442,1317L211,1224Z" fill="#232323" stroke="#232323" stroke-width="1.51"/><path d="M2166,907L2232,647L2040,712Z" fill="#828282" stroke="#828282" stroke-width="1.51"/><path d="M442,1317L545,1470L639,1113Z" fill="#333333" stroke="#333333" stroke-width="1.51"/><path d="M1003,1638L762,1698L1163,1719Z" fill="#5e5e5e" stroke="#5e5e5e" stroke-width="1.51"/><path d="M2166,907L2340,739L2232,647Z" fill="#7c7c7c" stroke="#7c7c7c" stroke-width="1.51"/><path d="M2215,1456L2191,1192L1885,1296Z" fill="#2b2b2b" stroke="#2b2b2b" stroke-width="1.51"/><path d="M545,1470L762,1698L955,1508Z" fill="#474747" stroke="#474747" stroke-width="1.51"/><path d="M588,159L308,317L688,356Z" fill="#474747" stroke="#474747" stroke-width="1.51"/><path d="M795,-109L639,10L871,255Z" fill="#4a4a4a" stroke="#4a4a4a" stroke-width="1.51"/><path d="M2375,355L2078,166L2116,461Z" fill="#404040" stroke="#404040" stroke-width="1.51"/><path d="M2116,461L2078,166L1996,439Z" fill="#515151" stroke="#515151" stroke-width="1.51"/><path d="M793,-182L795,-109L1029,-73Z" fill="#545454" stroke="#545454" stroke-width="1.51"/><path d="M1029,-73L795,-109L871,255Z" fill="#585858" stroke="#585858" stroke-width="1.51"/><path d="M1932,-62L1758,-114L1782,212Z" fill="#464646" stroke="#464646" stroke-width="1.51"/><path d="M1146,-301L793,-182L1029,-73Z" fill="#606060" stroke="#606060" stroke-width="1.51"/><path d="M545,1470L350,1867L762,1698Z" fill="#313131" stroke="#313131" stroke-width="1.51"/><path d="M442,1317L393,1396L545,1470Z" fill="#2a2a2a" stroke="#2a2a2a" stroke-width="1.51"/><path d="M211,1224L442,1317L446,1004Z" fill="#353535" stroke="#353535" stroke-width="1.51"/><path d="M2232,647L2375,355L2116,461Z" fill="#5a5a5a" stroke="#5a5a5a" stroke-width="1.51"/><path d="M2530,913L2340,739L2166,907Z" fill="#6c6c6c" stroke="#6c6c6c" stroke-width="1.51"/><path d="M462,69L308,317L588,159Z" fill="#303030" stroke="#303030" stroke-width="1.51"/><path d="M1805,1413L2215,1456L1885,1296Z" fill="#373737" stroke="#373737" stroke-width="1.51"/><path d="M1449,1613L1843,1741L1648,1392Z" fill="#585858" stroke="#585858" stroke-width="1.51"/><path d="M1786,1813L1843,1741L1449,1613Z" fill="#525252" stroke="#525252" stroke-width="1.51"/><path d="M1786,1813L1449,1613L1345,1660Z" fill="#656565" stroke="#656565" stroke-width="1.51"/><path d="M2078,166L1932,-62L1782,212Z" fill="#3c3c3c" stroke="#3c3c3c" stroke-width="1.51"/><path d="M639,10L462,69L588,159Z" fill="#343434" stroke="#343434" stroke-width="1.51"/><path d="M395,-389L462,69L639,10Z" fill="#2d2d2d" stroke="#2d2d2d" stroke-width="1.51"/><path d="M324,647L170,808L517,770Z" fill="#818181" stroke="#818181" stroke-width="1.51"/><path d="M-61,675L170,808L-55,548Z" fill="#7b7b7b" stroke="#7b7b7b" stroke-width="1.51"/><path d="M1146,-301L1029,-73L1442,-102Z" fill="#797979" stroke="#797979" stroke-width="1.51"/><path d="M795,-109L793,-182L639,10Z" fill="#464646" stroke="#464646" stroke-width="1.51"/><path d="M106,264L266,337L308,317Z" fill="#3c3c3c" stroke="#3c3c3c" stroke-width="1.51"/><path d="M308,317L266,337L324,647Z" fill="#515151" stroke="#515151" stroke-width="1.51"/><path d="M1300,-323L1442,-102L1655,-343Z" fill="#6c6c6c" stroke="#6c6c6c" stroke-width="1.51"/><path d="M1300,-323L1146,-301L1442,-102Z" fill="#808080" stroke="#808080" stroke-width="1.51"/><path d="M350,1867L1786,1813L1163,1719Z" fill="#6c6c6c" stroke="#6c6c6c" stroke-width="1.51"/><path d="M1163,1719L1786,1813L1345,1660Z" fill="#707070" stroke="#707070" stroke-width="1.51"/><path d="M91,1031L211,1224L446,1004Z" fill="#434343" stroke="#434343" stroke-width="1.51"/><path d="M1655,-343L1442,-102L1758,-114Z" fill="#5b5b5b" stroke="#5b5b5b" stroke-width="1.51"/><path d="M2216,1828L2215,1456L1843,1741Z" fill="#292929" stroke="#292929" stroke-width="1.51"/><path d="M1843,1741L2215,1456L1805,1413Z" fill="#383838" stroke="#383838" stroke-width="1.51"/><path d="M2191,1192L2530,913L2166,907Z" fill="#515151" stroke="#515151" stroke-width="1.51"/><path d="M106,264L195,409L266,337Z" fill="#404040" stroke="#404040" stroke-width="1.51"/><path d="M266,337L195,409L324,647Z" fill="#565656" stroke="#565656" stroke-width="1.51"/><path d="M2429,1623L2305,1390L2215,1456Z" fill="#212121" stroke="#212121" stroke-width="1.51"/><path d="M2215,1456L2305,1390L2191,1192Z" fill="#222222" stroke="#222222" stroke-width="1.51"/><path d="M2340,739L2375,355L2232,647Z" fill="#6b6b6b" stroke="#6b6b6b" stroke-width="1.51"/><path d="M2281,-85L2076,-269L1932,-62Z" fill="#292929" stroke="#292929" stroke-width="1.51"/><path d="M2514,308L2375,355L2560,408Z" fill="#434343" stroke="#434343" stroke-width="1.51"/><path d="M-117,965L91,1031L170,808Z" fill="#5c5c5c" stroke="#5c5c5c" stroke-width="1.51"/><path d="M170,808L91,1031L446,1004Z" fill="#5b5b5b" stroke="#5b5b5b" stroke-width="1.51"/><path d="M1915,-402L1758,-114L1932,-62Z" fill="#404040" stroke="#404040" stroke-width="1.51"/><path d="M1915,-402L1655,-343L1758,-114Z" fill="#494949" stroke="#494949" stroke-width="1.51"/><path d="M2305,1390L2439,1254L2191,1192Z" fill="#252525" stroke="#252525" stroke-width="1.51"/><path d="M2439,1254L2530,913L2191,1192Z" fill="#3d3d3d" stroke="#3d3d3d" stroke-width="1.51"/><path d="M-6,1196L157,1431L211,1224Z" fill="#242424" stroke="#242424" stroke-width="1.51"/><path d="M211,1224L157,1431L393,1396Z" fill="#222222" stroke="#222222" stroke-width="1.51"/><path d="M393,1396L350,1867L545,1470Z" fill="#262626" stroke="#262626" stroke-width="1.51"/><path d="M-55,548L170,808L324,647Z" fill="#7a7a7a" stroke="#7a7a7a" stroke-width="1.51"/><path d="M462,69L106,264L308,317Z" fill="#2e2e2e" stroke="#2e2e2e" stroke-width="1.51"/><path d="M107,-176L106,264L462,69Z" fill="#222222" stroke="#222222" stroke-width="1.51"/><path d="M91,1031L-6,1196L211,1224Z" fill="#393939" stroke="#393939" stroke-width="1.51"/><path d="M-117,965L-6,1196L91,1031Z" fill="#464646" stroke="#464646" stroke-width="1.51"/><path d="M-55,548L324,647L195,409Z" fill="#626262" stroke="#626262" stroke-width="1.51"/><path d="M2375,355L2281,-85L2078,166Z" fill="#222222" stroke="#222222" stroke-width="1.51"/><path d="M2560,408L2375,355L2340,739Z" fill="#5c5c5c" stroke="#5c5c5c" stroke-width="1.51"/><path d="M2281,-85L1932,-62L2078,166Z" fill="#2a2a2a" stroke="#2a2a2a" stroke-width="1.51"/><path d="M2684,681L2560,408L2340,739Z" fill="#6f6f6f" stroke="#6f6f6f" stroke-width="1.51"/><path d="M2429,-53L2281,-85L2375,355Z" fill="#222222" stroke="#222222" stroke-width="1.51"/><path d="M106,264L-55,548L195,409Z" fill="#4c4c4c" stroke="#4c4c4c" stroke-width="1.51"/><path d="M2076,-269L1915,-402L1932,-62Z" fill="#343434" stroke="#343434" stroke-width="1.51"/><path d="M1655,-343L1915,-402L1300,-323Z" fill="#595959" stroke="#595959" stroke-width="1.51"/><path d="M793,-182L631,-405L639,10Z" fill="#3f3f3f" stroke="#3f3f3f" stroke-width="1.51"/><path d="M1146,-301L631,-405L793,-182Z" fill="#515151" stroke="#515151" stroke-width="1.51"/><path d="M1300,-323L631,-405L1146,-301Z" fill="#646464" stroke="#646464" stroke-width="1.51"/><path d="M1915,-402L631,-405L1300,-323Z" fill="#818181" stroke="#818181" stroke-width="1.51"/><path d="M2305,1390L2429,1623L2439,1254Z" fill="#212121" stroke="#212121" stroke-width="1.51"/><path d="M1786,1813L2216,1828L1843,1741Z" fill="#363636" stroke="#363636" stroke-width="1.51"/><path d="M-295,892L-117,965L-61,675Z" fill="#6c6c6c" stroke="#6c6c6c" stroke-width="1.51"/><path d="M-61,675L-117,965L170,808Z" fill="#727272" stroke="#727272" stroke-width="1.51"/><path d="M157,1431L350,1867L393,1396Z" fill="#212121" stroke="#212121" stroke-width="1.51"/><path d="M762,1698L350,1867L1163,1719Z" fill="#464646" stroke="#464646" stroke-width="1.51"/><path d="M1786,1813L350,1867L2216,1828Z" fill="#6c6c6c" stroke="#6c6c6c" stroke-width="1.51"/><path d="M52,1779L350,1867L157,1431Z" fill="#1f1f1f" stroke="#1f1f1f" stroke-width="1.51"/><path d="M2216,1828L2429,1623L2215,1456Z" fill="#202020" stroke="#202020" stroke-width="1.51"/><path d="M2696,970L2684,681L2530,913Z" fill="#6a6a6a" stroke="#6a6a6a" stroke-width="1.51"/><path d="M2696,970L2530,913L2439,1254Z" fill="#494949" stroke="#494949" stroke-width="1.51"/><path d="M2530,913L2684,681L2340,739Z" fill="#787878" stroke="#787878" stroke-width="1.51"/><path d="M2729,1347L2696,970L2439,1254Z" fill="#313131" stroke="#313131" stroke-width="1.51"/><path d="M2765,282L2514,308L2560,408Z" fill="#3f3f3f" stroke="#3f3f3f" stroke-width="1.51"/><path d="M2578,-117L2429,-53L2514,308Z" fill="#212121" stroke="#212121" stroke-width="1.51"/><path d="M2514,308L2429,-53L2375,355Z" fill="#2b2b2b" stroke="#2b2b2b" stroke-width="1.51"/><path d="M2281,-85L2377,-392L2076,-269Z" fill="#202020" stroke="#202020" stroke-width="1.51"/><path d="M2076,-269L2377,-392L1915,-402Z" fill="#252525" stroke="#252525" stroke-width="1.51"/><path d="M-384,1174L-22,1485L-6,1196Z" fill="#222222" stroke="#222222" stroke-width="1.51"/><path d="M-6,1196L-22,1485L157,1431Z" fill="#212121" stroke="#212121" stroke-width="1.51"/><path d="M631,-405L395,-389L639,10Z" fill="#313131" stroke="#313131" stroke-width="1.51"/><path d="M-390,514L-320,618L-55,548Z" fill="#656565" stroke="#656565" stroke-width="1.51"/><path d="M395,-389L215,-277L462,69Z" fill="#212121" stroke="#212121" stroke-width="1.51"/><path d="M215,-277L107,-176L462,69Z" fill="#212121" stroke="#212121" stroke-width="1.51"/><path d="M2876,527L2560,408L2684,681Z" fill="#626262" stroke="#626262" stroke-width="1.51"/><path d="M2429,1623L2729,1347L2439,1254Z" fill="#212121" stroke="#212121" stroke-width="1.51"/><path d="M2771,1471L2729,1347L2429,1623Z" fill="#202020" stroke="#202020" stroke-width="1.51"/><path d="M-22,1485L52,1779L157,1431Z" fill="#202020" stroke="#202020" stroke-width="1.51"/><path d="M-117,965L-384,1174L-6,1196Z" fill="#3e3e3e" stroke="#3e3e3e" stroke-width="1.51"/><path d="M-22,1485L-44,1804L52,1779Z" fill="#1f1f1f" stroke="#1f1f1f" stroke-width="1.51"/><path d="M-320,618L-295,892L-61,675Z" fill="#808080" stroke="#808080" stroke-width="1.51"/><path d="M-320,618L-61,675L-55,548Z" fill="#6f6f6f" stroke="#6f6f6f" stroke-width="1.51"/><path d="M2876,527L2765,282L2560,408Z" fill="#4b4b4b" stroke="#4b4b4b" stroke-width="1.51"/><path d="M2876,527L2684,681L3043,814Z" fill="#797979" stroke="#797979" stroke-width="1.51"/><path d="M-242,271L-55,548L106,264Z" fill="#434343" stroke="#434343" stroke-width="1.51"/><path d="M2429,-53L2377,-392L2281,-85Z" fill="#202020" stroke="#202020" stroke-width="1.51"/><path d="M2765,282L2578,-117L2514,308Z" fill="#232323" stroke="#232323" stroke-width="1.51"/><path d="M-153,-66L-242,271L106,264Z" fill="#232323" stroke="#232323" stroke-width="1.51"/><path d="M3043,814L2684,681L2696,970Z" fill="#6f6f6f" stroke="#6f6f6f" stroke-width="1.51"/><path d="M2595,-182L2377,-392L2429,-53Z" fill="#202020" stroke="#202020" stroke-width="1.51"/><path d="M2729,1347L3016,1028L2696,970Z" fill="#3d3d3d" stroke="#3d3d3d" stroke-width="1.51"/><path d="M2740,1837L2771,1471L2429,1623Z" fill="#1f1f1f" stroke="#1f1f1f" stroke-width="1.51"/><path d="M-361,1623L-44,1804L-22,1485Z" fill="#1f1f1f" stroke="#1f1f1f" stroke-width="1.51"/><path d="M52,1779L-44,1804L350,1867Z" fill="#1f1f1f" stroke="#1f1f1f" stroke-width="1.51"/><path d="M2578,-117L2595,-182L2429,-53Z" fill="#202020" stroke="#202020" stroke-width="1.51"/><path d="M2835,-71L2595,-182L2578,-117Z" fill="#1f1f1f" stroke="#1f1f1f" stroke-width="1.51"/><path d="M2835,-71L2578,-117L2765,282Z" fill="#202020" stroke="#202020" stroke-width="1.51"/><path d="M107,-176L-153,-66L106,264Z" fill="#202020" stroke="#202020" stroke-width="1.51"/><path d="M-3,-412L-153,-66L107,-176Z" fill="#1f1f1f" stroke="#1f1f1f" stroke-width="1.51"/><path d="M-3,-412L107,-176L215,-277Z" fill="#1f1f1f" stroke="#1f1f1f" stroke-width="1.51"/><path d="M-242,271L-390,514L-55,548Z" fill="#505050" stroke="#505050" stroke-width="1.51"/><path d="M-320,618L-390,514L-295,892Z" fill="#797979" stroke="#797979" stroke-width="1.51"/><path d="M-420,283L-390,514L-242,271Z" fill="#414141" stroke="#414141" stroke-width="1.51"/><path d="M2771,1471L2857,1408L2729,1347Z" fill="#202020" stroke="#202020" stroke-width="1.51"/><path d="M-295,892L-384,1174L-117,965Z" fill="#4e4e4e" stroke="#4e4e4e" stroke-width="1.51"/><path d="M-390,514L-384,1174L-295,892Z" fill="#686868" stroke="#686868" stroke-width="1.51"/><path d="M3006,1329L3016,1028L2729,1347Z" fill="#292929" stroke="#292929" stroke-width="1.51"/><path d="M1915,-402L-3,-412L631,-405Z" fill="#4f4f4f" stroke="#4f4f4f" stroke-width="1.51"/><path d="M631,-405L-3,-412L395,-389Z" fill="#1f1f1f" stroke="#1f1f1f" stroke-width="1.51"/><path d="M395,-389L-3,-412L215,-277Z" fill="#1f1f1f" stroke="#1f1f1f" stroke-width="1.51"/><path d="M3013,188L2835,-71L2765,282Z" fill="#202020" stroke="#202020" stroke-width="1.51"/><path d="M3016,1028L3043,814L2696,970Z" fill="#5a5a5a" stroke="#5a5a5a" stroke-width="1.51"/><path d="M-390,514L-420,283L-384,1174Z" fill="#767676" stroke="#767676" stroke-width="1.51"/><path d="M-350,12L-420,283L-242,271Z" fill="#272727" stroke="#272727" stroke-width="1.51"/><path d="M-350,12L-242,271L-153,-66Z" fill="#202020" stroke="#202020" stroke-width="1.51"/><path d="M2216,1828L2740,1837L2429,1623Z" fill="#1f1f1f" stroke="#1f1f1f" stroke-width="1.51"/><path d="M2771,1471L3053,1717L2857,1408Z" fill="#1e1e1e" stroke="#1e1e1e" stroke-width="1.51"/><path d="M2857,1408L3006,1329L2729,1347Z" fill="#202020" stroke="#202020" stroke-width="1.51"/><path d="M350,1867L2740,1837L2216,1828Z" fill="#494949" stroke="#494949" stroke-width="1.51"/><path d="M3013,188L2765,282L2876,527Z" fill="#3d3d3d" stroke="#3d3d3d" stroke-width="1.51"/><path d="M2595,-182L2966,-345L2377,-392Z" fill="#1e1e1e" stroke="#1e1e1e" stroke-width="1.51"/><path d="M-301,-221L-350,12L-153,-66Z" fill="#1f1f1f" stroke="#1f1f1f" stroke-width="1.51"/><path d="M3016,1028L3053,1717L3043,814Z" fill="#303030" stroke="#303030" stroke-width="1.51"/><path d="M3053,1717L3006,1329L2857,1408Z" fill="#1f1f1f" stroke="#1f1f1f" stroke-width="1.51"/><path d="M-384,1174L-361,1623L-22,1485Z" fill="#1f1f1f" stroke="#1f1f1f" stroke-width="1.51"/><path d="M3043,814L3013,188L2876,527Z" fill="#5b5b5b" stroke="#5b5b5b" stroke-width="1.51"/><path d="M-384,1174L-409,1601L-361,1623Z" fill="#1f1f1f" stroke="#1f1f1f" stroke-width="1.51"/><path d="M-361,1623L-409,1601L-44,1804Z" fill="#1e1e1e" stroke="#1e1e1e" stroke-width="1.51"/><path d="M-420,283L-409,1601L-384,1174Z" fill="#4c4c4c" stroke="#4c4c4c" stroke-width="1.51"/><path d="M-3,-412L-301,-221L-153,-66Z" fill="#1e1e1e" stroke="#1e1e1e" stroke-width="1.51"/><path d="M-350,12L-301,-221L-420,283Z" fill="#1f1f1f" stroke="#1f1f1f" stroke-width="1.51"/><path d="M2740,1837L3053,1717L2771,1471Z" fill="#1e1e1e" stroke="#1e1e1e" stroke-width="1.51"/><path d="M3006,1329L3053,1717L3016,1028Z" fill="#1f1f1f" stroke="#1f1f1f" stroke-width="1.51"/><path d="M2835,-71L2966,-345L2595,-182Z" fill="#1e1e1e" stroke="#1e1e1e" stroke-width="1.51"/><path d="M3013,188L2966,-345L2835,-71Z" fill="#1e1e1e" stroke="#1e1e1e" stroke-width="1.51"/></svg>